<?xml version="1.0" encoding="iso-8859-1"?>
<!-- Generator: Adobe Illustrator 18.1.1, SVG Export Plug-In . SVG Version: 6.00 Build 0)  -->
<svg version="1.1" id="Layer_1" xmlns="http://www.w3.org/2000/svg" xmlns:xlink="http://www.w3.org/1999/xlink" x="0px" y="0px"
	 viewBox="0 0 244.486 46.832" style="enable-background:new 0 0 244.486 46.832;" xml:space="preserve">
<g>
	<g>
		<g>
			<path style="fill:#323335;" d="M62.778,15.949l-1.302,3.943h-1.674l4.259-12.537h1.953l4.278,12.537h-1.729l-1.339-3.943H62.778z
				 M66.889,14.685l-1.228-3.608c-0.279-0.818-0.465-1.562-0.651-2.288h-0.037c-0.186,0.744-0.391,1.507-0.633,2.27l-1.228,3.627
				H66.889z"/>
			<path style="fill:#323335;" d="M73.031,17.921c0.726,0.446,1.786,0.818,2.902,0.818c1.655,0,2.623-0.874,2.623-2.139
				c0-1.172-0.669-1.842-2.362-2.493c-2.046-0.725-3.311-1.786-3.311-3.553c0-1.953,1.618-3.404,4.055-3.404
				c1.283,0,2.213,0.298,2.771,0.614l-0.446,1.321c-0.409-0.223-1.246-0.595-2.381-0.595c-1.711,0-2.362,1.023-2.362,1.878
				c0,1.172,0.763,1.749,2.492,2.418c2.121,0.818,3.199,1.842,3.199,3.683c0,1.935-1.432,3.608-4.39,3.608
				c-1.209,0-2.529-0.353-3.199-0.8L73.031,17.921z"/>
			<path style="fill:#323335;" d="M83.32,17.921c0.726,0.446,1.786,0.818,2.902,0.818c1.656,0,2.623-0.874,2.623-2.139
				c0-1.172-0.669-1.842-2.362-2.493c-2.046-0.725-3.311-1.786-3.311-3.553c0-1.953,1.618-3.404,4.055-3.404
				c1.284,0,2.213,0.298,2.771,0.614l-0.446,1.321c-0.409-0.223-1.246-0.595-2.381-0.595c-1.711,0-2.362,1.023-2.362,1.878
				c0,1.172,0.763,1.749,2.492,2.418c2.121,0.818,3.2,1.842,3.2,3.683c0,1.935-1.432,3.608-4.39,3.608
				c-1.209,0-2.529-0.353-3.199-0.8L83.32,17.921z"/>
			<path style="fill:#323335;" d="M95.451,7.356v12.537h-1.618V7.356H95.451z"/>
			<path style="fill:#323335;" d="M99.173,17.921c0.726,0.446,1.786,0.818,2.902,0.818c1.655,0,2.623-0.874,2.623-2.139
				c0-1.172-0.669-1.842-2.362-2.493c-2.046-0.725-3.311-1.786-3.311-3.553c0-1.953,1.618-3.404,4.055-3.404
				c1.283,0,2.213,0.298,2.771,0.614l-0.446,1.321c-0.409-0.223-1.246-0.595-2.381-0.595c-1.711,0-2.362,1.023-2.362,1.878
				c0,1.172,0.763,1.749,2.492,2.418c2.121,0.818,3.199,1.842,3.199,3.683c0,1.935-1.432,3.608-4.39,3.608
				c-1.209,0-2.529-0.353-3.199-0.8L99.173,17.921z"/>
			<path style="fill:#323335;" d="M112.066,8.732h-3.813V7.356h9.282v1.376h-3.832v11.16h-1.637V8.732z"/>
			<path style="fill:#323335;" d="M126.541,14.015h-4.874v4.521h5.432v1.357h-7.05V7.356h6.771v1.358h-5.152v3.962h4.874V14.015z"/>
			<path style="fill:#323335;" d="M130.319,7.523c0.986-0.149,2.158-0.261,3.441-0.261c2.325,0,3.98,0.54,5.078,1.562
				c1.116,1.023,1.767,2.474,1.767,4.501c0,2.046-0.633,3.72-1.805,4.874c-1.171,1.172-3.105,1.804-5.542,1.804
				c-1.153,0-2.121-0.056-2.939-0.149V7.523z M131.938,18.609c0.409,0.074,1.005,0.093,1.637,0.093c3.46,0,5.339-1.935,5.339-5.319
				c0.019-2.958-1.655-4.836-5.078-4.836c-0.837,0-1.47,0.075-1.897,0.167V18.609z"/>
			<path style="fill:#323335;" d="M148.889,7.356h1.617v11.179h5.357v1.357h-6.975V7.356z"/>
			<path style="fill:#323335;" d="M160.404,7.356v12.537h-1.618V7.356H160.404z"/>
			<path style="fill:#323335;" d="M167.103,19.893L163.01,7.356h1.749l1.953,6.175c0.539,1.693,1.004,3.218,1.339,4.688h0.037
				c0.354-1.451,0.875-3.032,1.433-4.669l2.12-6.194h1.73l-4.483,12.537H167.103z"/>
			<path style="fill:#323335;" d="M177.467,7.356v12.537h-1.619V7.356H177.467z"/>
			<path style="fill:#323335;" d="M181.411,19.893V7.356h1.768l4.018,6.343c0.93,1.469,1.655,2.79,2.251,4.074l0.037-0.019
				c-0.149-1.674-0.187-3.2-0.187-5.152V7.356h1.525v12.537h-1.637l-3.98-6.361c-0.874-1.395-1.712-2.827-2.344-4.185l-0.056,0.019
				c0.093,1.581,0.13,3.088,0.13,5.171v5.357H181.411z"/>
			<path style="fill:#323335;" d="M204.312,19.335c-0.726,0.26-2.157,0.688-3.851,0.688c-1.896,0-3.459-0.484-4.687-1.656
				c-1.079-1.042-1.749-2.715-1.749-4.668c0.019-3.739,2.586-6.473,6.789-6.473c1.451,0,2.586,0.316,3.125,0.577l-0.391,1.321
				c-0.669-0.298-1.507-0.54-2.771-0.54c-3.05,0-5.04,1.897-5.04,5.041c0,3.181,1.915,5.059,4.836,5.059
				c1.06,0,1.785-0.148,2.157-0.335V14.61h-2.548v-1.302h4.129V19.335z"/>
			<path style="fill:#F05123;" d="M60.751,28.197c0.818-0.168,1.99-0.261,3.106-0.261c1.73,0,2.846,0.316,3.627,1.023
				c0.633,0.558,0.986,1.413,0.986,2.381c0,1.655-1.042,2.753-2.362,3.199v0.056c0.967,0.335,1.543,1.228,1.841,2.529
				c0.409,1.749,0.707,2.958,0.967,3.441h-1.674c-0.205-0.354-0.483-1.433-0.837-2.994c-0.372-1.73-1.042-2.381-2.511-2.438h-1.525
				v5.432h-1.618V28.197z M62.369,33.907h1.656c1.73,0,2.827-0.948,2.827-2.381c0-1.618-1.172-2.325-2.883-2.344
				c-0.781,0-1.339,0.075-1.6,0.149V33.907z"/>
			<path style="fill:#F05123;" d="M78.369,34.688h-4.873v4.521h5.431v1.357h-7.049V28.029h6.771v1.358h-5.152v3.962h4.873V34.688z"
				/>
			<path style="fill:#F05123;" d="M81.925,38.595c0.726,0.446,1.786,0.818,2.901,0.818c1.656,0,2.623-0.874,2.623-2.139
				c0-1.172-0.67-1.842-2.362-2.493c-2.046-0.725-3.311-1.785-3.311-3.553c0-1.953,1.619-3.403,4.055-3.403
				c1.283,0,2.213,0.298,2.771,0.614l-0.446,1.32c-0.41-0.224-1.247-0.596-2.381-0.596c-1.711,0-2.362,1.023-2.362,1.879
				c0,1.172,0.762,1.748,2.492,2.418c2.121,0.818,3.199,1.842,3.199,3.683c0,1.935-1.432,3.608-4.39,3.608
				c-1.209,0-2.53-0.353-3.199-0.799L81.925,38.595z"/>
			<path style="fill:#F05123;" d="M98.929,34.688h-4.873v4.521h5.431v1.357h-7.049V28.029h6.771v1.358h-5.152v3.962h4.873V34.688z"
				/>
			<path style="fill:#F05123;" d="M104.735,36.623l-1.302,3.943h-1.674l4.26-12.537h1.953l4.278,12.537h-1.73l-1.339-3.943H104.735z
				 M108.846,35.358l-1.228-3.608c-0.279-0.818-0.465-1.562-0.651-2.288h-0.037c-0.186,0.744-0.391,1.507-0.632,2.27l-1.228,3.627
				H108.846z"/>
			<path style="fill:#F05123;" d="M115.211,28.197c0.818-0.168,1.99-0.261,3.106-0.261c1.73,0,2.846,0.316,3.627,1.023
				c0.633,0.558,0.986,1.413,0.986,2.381c0,1.655-1.042,2.753-2.362,3.199v0.056c0.967,0.335,1.543,1.228,1.841,2.529
				c0.409,1.749,0.707,2.958,0.967,3.441h-1.674c-0.205-0.354-0.483-1.433-0.837-2.994c-0.372-1.73-1.042-2.381-2.511-2.438h-1.525
				v5.432h-1.618V28.197z M116.829,33.907h1.656c1.73,0,2.827-0.948,2.827-2.381c0-1.618-1.172-2.325-2.883-2.344
				c-0.781,0-1.339,0.075-1.6,0.149V33.907z"/>
			<path style="fill:#F05123;" d="M135.154,40.157c-0.596,0.298-1.786,0.595-3.312,0.595c-3.534,0-6.193-2.231-6.193-6.342
				c0-3.925,2.66-6.585,6.547-6.585c1.562,0,2.549,0.335,2.977,0.558l-0.391,1.321c-0.614-0.298-1.488-0.521-2.53-0.521
				c-2.938,0-4.892,1.879-4.892,5.171c0,3.069,1.768,5.041,4.817,5.041c0.986,0,1.99-0.205,2.642-0.521L135.154,40.157z"/>
			<path style="fill:#F05123;" d="M139.919,28.029v5.246h6.063v-5.246h1.638v12.537h-1.638v-5.878h-6.063v5.878h-1.618V28.029
				H139.919z"/>
			<path style="fill:#F05123;" d="M158.228,28.029v12.537h-1.618V28.029H158.228z"/>
			<path style="fill:#F05123;" d="M162.173,40.566V28.029h1.767l4.018,6.343c0.931,1.47,1.656,2.79,2.251,4.074l0.037-0.019
				c-0.148-1.675-0.187-3.199-0.187-5.152v-5.246h1.525v12.537h-1.637l-3.98-6.361c-0.874-1.395-1.711-2.827-2.344-4.186
				l-0.056,0.02c0.093,1.58,0.13,3.087,0.13,5.17v5.357H162.173z"/>
			<path style="fill:#F05123;" d="M175.309,38.595c0.726,0.446,1.785,0.818,2.901,0.818c1.655,0,2.623-0.874,2.623-2.139
				c0-1.172-0.67-1.842-2.362-2.493c-2.046-0.725-3.311-1.785-3.311-3.553c0-1.953,1.618-3.403,4.055-3.403
				c1.283,0,2.213,0.298,2.771,0.614l-0.446,1.32c-0.409-0.224-1.247-0.596-2.381-0.596c-1.712,0-2.362,1.023-2.362,1.879
				c0,1.172,0.762,1.748,2.492,2.418c2.12,0.818,3.199,1.842,3.199,3.683c0,1.935-1.433,3.608-4.39,3.608
				c-1.209,0-2.53-0.353-3.199-0.799L175.309,38.595z"/>
			<path style="fill:#F05123;" d="M188.201,29.406h-3.812v-1.377h9.281v1.377h-3.831v11.16h-1.638V29.406z"/>
			<path style="fill:#F05123;" d="M197.803,28.029v12.537h-1.618V28.029H197.803z"/>
			<path style="fill:#F05123;" d="M204.129,29.406h-3.813v-1.377h9.281v1.377h-3.831v11.16h-1.637V29.406z"/>
			<path style="fill:#F05123;" d="M213.729,28.029v7.422c0,2.809,1.246,3.999,2.92,3.999c1.86,0,3.051-1.228,3.051-3.999v-7.422
				h1.637v7.311c0,3.85-2.027,5.432-4.743,5.432c-2.566,0-4.501-1.47-4.501-5.357v-7.385H213.729z"/>
			<path style="fill:#F05123;" d="M227.646,29.406h-3.812v-1.377h9.281v1.377h-3.832v11.16h-1.637V29.406z"/>
			<path style="fill:#F05123;" d="M242.121,34.688h-4.874v4.521h5.432v1.357h-7.05V28.029h6.771v1.358h-5.152v3.962h4.874V34.688z"
				/>
		</g>
	</g>
	<g>
		<g>
			<g>
				<path style="fill:#F05123;" d="M21.41,1.933l7.107,26.584L1.933,21.41L21.41,1.933 M21.929,0L0,21.929l29.93,8.001L21.929,0
					L21.929,0z"/>
			</g>
		</g>
		<g>
			<path style="fill:#6A7C92;" d="M11.213,18.316l26.584,7.107L18.319,44.9L11.213,18.316 M9.8,16.903l8.001,29.93L39.73,24.904
				L9.8,16.903L9.8,16.903z"/>
		</g>
	</g>
</g>
</svg>
